<svg version="1.2" xmlns="http://www.w3.org/2000/svg" viewBox="0 0 152 33" width="152" height="33">
	<title>logo-svg</title>
	<style>
		.s0 { fill: #64ffe6 } 
	</style>
	<g id="SvgjsG1746">
		<path id="logo-cyan" fill-rule="evenodd" class="s0" d="m17 19.9v9.9h-6v-9.9c0-6.6 4.8-10.2 11-10.2 0.2 0 0.4 0 0.7 0.1 0.3 0 0.6 0.1 0.9 0.1v5.8q-0.3-0.1-0.7-0.1-0.4-0.1-0.7-0.1c-1 0-1.8 0.1-2.5 0.3-1.1 0.4-2.1 1.2-2.5 2.4-0.2 0.5-0.2 1.1-0.2 1.7zm31.6 9.9h-6c-0.4-1-0.8-2-1-3-1.3 2.2-3.4 3.2-6 3.2-5.6 0-9.7-4.8-9.7-10.2 0-6.3 4.7-10.1 10.6-10.1 6.3 0 10.3 4.1 10.5 10.2q0 0.7 0 1.8c0 2.8 0.5 5.6 1.6 8.1zm-7.6-9.9c-0.1-2.9-1.5-4.6-4.5-4.6q-1.2 0-2.1 0.3c-1.9 0.9-2.5 2.4-2.5 4.3q0 1 0.3 1.8c0.5 2 2.3 2.8 4.3 2.8 3 0 4.5-1.6 4.5-4.6zm22.4-10h5.9v2c0 3.1-1 6-3.2 8l5.2 9.9h-7.3l-6.2-11.7v11.7h-6v-27.8h6v15h0.9c3.2 0 4.7-2.2 4.7-5.1zm22.1 0h6v2c0 3-1.1 5.9-3.3 8l5.3 9.9h-7.4l-6.2-11.8v11.8h-5.9v-27.9h5.9v15h1c3.2 0 4.6-2.1 4.6-5.1zm32.3 19.9h-6c-0.4-1-0.7-2-1-3-1.3 2.2-3.4 3.2-5.9 3.2-5.7 0-9.8-4.8-9.8-10.2 0-6.3 4.7-10.1 10.6-10.1 6.4 0 10.3 4.1 10.5 10.2q0 0.7 0 1.8c0 2.8 0.5 5.6 1.6 8.1zm-7.6-9.9c-0.1-2.9-1.4-4.6-4.5-4.6q-1.2 0-2.1 0.3c-1.8 0.9-2.5 2.4-2.5 4.3q0 1 0.3 1.8c0.6 2 2.4 2.8 4.3 2.8 3.1 0 4.5-1.6 4.5-4.6zm24.8-10h6v10c0 6.1-4.2 10.1-10.1 10.1-6.1 0-10.2-4.2-10.2-10.1v-10h6v10c0 2.6 1.3 4.6 4.2 4.6 2.9 0 4.1-1.9 4.1-4.6z"/>
	</g>
</svg>